<svg width="85" height="91" viewBox="0 0 85 91" fill="none" xmlns="http://www.w3.org/2000/svg">
<g clip-path="url(#clip0)">
<mask id="mask0" mask-type="alpha" maskUnits="userSpaceOnUse" x="0" y="0" width="85" height="92">
<path d="M0 0.16449H84.9482V91.0047H0V0.16449Z" fill="white"/>
</mask>
<g mask="url(#mask0)">
<path fill-rule="evenodd" clip-rule="evenodd" d="M17.917 85.8287C14.1019 82.6647 11.1479 78.5621 8.71549 74.2723C7.19772 71.5948 5.3807 69.8611 3.94152 67.1568C1.89046 63.3027 0.528132 58.2878 0.113611 53.8895C-0.285772 49.6574 0.334844 45.1587 2.50118 41.4475C4.81365 37.4867 8.76556 34.8314 12.3984 32.0378C16.0325 29.2436 19.6467 25.8953 20.736 21.438C21.7909 17.1208 20.2877 12.4255 21.6489 8.19521C23.0764 3.75896 27.5727 0.748961 32.1988 0.251378C36.8249 -0.246789 41.4772 1.44546 45.3348 4.05238C48.2562 6.02755 50.8103 8.51896 53.787 10.4107C56.7638 12.3019 60.3827 13.5811 63.8071 12.7458C67.2316 11.9099 69.9888 9.08655 73.4797 8.5983C78.0441 7.95955 82.2941 11.6975 83.891 16.0282C86.0137 21.7845 84.5815 28.2024 82.7458 34.0561C80.9102 39.9099 78.6571 45.8721 79.2032 51.9837C79.6823 57.3527 82.2958 62.8308 80.4933 67.9105C79.021 72.0609 74.8688 74.7401 70.6188 75.8665C66.3688 76.9924 61.9051 76.867 57.5212 77.1948C53.1373 77.5226 48.5811 78.4023 45.1555 81.1632C42.9111 82.9716 41.3124 85.4635 39.1734 87.3961C35.9137 90.342 32.7955 91.5145 28.425 90.8022C24.4184 90.1489 20.9357 88.3324 17.917 85.8287" fill="#F0F0F5"/>
</g>
<path fill-rule="evenodd" clip-rule="evenodd" d="M39.8119 23.0277L19.6122 58.0831C18.0543 60.7868 20.0023 64.1667 23.1176 64.1667H63.517C66.6329 64.1667 68.5804 60.7868 67.0224 58.0831L46.8227 23.0277C45.2647 20.3239 41.3699 20.3239 39.8119 23.0277Z" fill="white"/>
<path fill-rule="evenodd" clip-rule="evenodd" d="M43.3731 57.3913C42.5697 57.3913 41.9176 56.7379 41.9176 55.9329C41.9176 55.1279 42.5697 54.4746 43.3731 54.4746C44.1765 54.4746 44.8286 55.1279 44.8286 55.9329C44.8286 56.7379 44.1765 57.3913 43.3731 57.3913ZM43.4081 50.9746C42.6879 50.9746 42.0952 50.4362 42.0649 49.7537L41.3372 33.6216C41.3046 32.9053 41.9077 32.3079 42.6634 32.3079H44.0828C44.8362 32.3079 45.4387 32.9018 45.4102 33.6163L44.7523 49.7484C44.7238 50.4333 44.1306 50.9746 43.4081 50.9746" fill="#D7D7E0"/>
</g>
<defs>
<clipPath id="clip0">
<rect width="85" height="91" fill="white"/>
</clipPath>
</defs>
</svg>